HIERARCHY
ROOT Hips
{
    OFFSET   0.000000   0.000000   0.000000
    CHANNELS 6 Xposition Yposition Zposition Zrotation Xrotation Yrotation
    JOINT Chest
    {
        OFFSET   0.000000   8.007230   0.000000
        CHANNELS 3 Zrotation Xrotation Yrotation
        JOINT Chest2
        {
            OFFSET   0.000000  22.077100   0.000000
            CHANNELS 3 Zrotation Xrotation Yrotation
            JOINT Neck
            {
                OFFSET   0.000000  23.255100   0.000000
                CHANNELS 3 Zrotation Xrotation Yrotation
                JOINT Head
                {
                    OFFSET   0.000000  14.370100   1.956600
                    CHANNELS 3 Zrotation Xrotation Yrotation
                    End Site
                    {
                        OFFSET   0.000000  19.566000   0.000000
                    }
                }
            }
            JOINT LeftCollar
            {
                OFFSET   3.911900  19.017000  -0.467063
                CHANNELS 3 Zrotation Xrotation Yrotation
                JOINT LeftShoulder
                {
                    OFFSET  10.383700   0.000000   0.000000
                    CHANNELS 3 Zrotation Xrotation Yrotation
                    JOINT LeftElbow
                    {
                        OFFSET  26.662100   0.001193   0.000980
                        CHANNELS 3 Zrotation Xrotation Yrotation
                        JOINT LeftWrist
                        {
                            OFFSET  28.869000  -0.000059  -0.000082
                            CHANNELS 3 Zrotation Xrotation Yrotation
                            JOINT LeftFinger0
                            {
                                OFFSET   2.044650  -2.323450   3.252850
                                CHANNELS 3 Zrotation Xrotation Yrotation
                                JOINT LeftFinger01
                                {
                                    OFFSET   3.088130   0.000000   0.000000
                                    CHANNELS 3 Zrotation Xrotation Yrotation
                                    JOINT LeftFinger02
                                    {
                                        OFFSET   2.639460   0.000000   0.000000
                                        CHANNELS 3 Zrotation Xrotation Yrotation
                                        End Site
                                        {
                                            OFFSET   2.582190   0.000000   0.000000
                                        }
                                    }
                                }
                            }
                            JOINT LeftFinger1
                            {
                                OFFSET   8.364480   0.000000   3.252850
                                CHANNELS 3 Zrotation Xrotation Yrotation
                                JOINT LeftFinger11
                                {
                                    OFFSET   4.646930   0.000000   0.000000
                                    CHANNELS 3 Zrotation Xrotation Yrotation
                                    JOINT LeftFinger12
                                    {
                                        OFFSET   2.323470   0.000000   0.000000
                                        CHANNELS 3 Zrotation Xrotation Yrotation
                                        End Site
                                        {
                                            OFFSET   2.273050   0.000000   0.000000
                                        }
                                    }
                                }
                            }
                            JOINT LeftFinger2
                            {
                                OFFSET   8.364490   0.000016   1.078090
                                CHANNELS 3 Zrotation Xrotation Yrotation
                                JOINT LeftFinger21
                                {
                                    OFFSET   5.111610   0.000000   0.000000
                                    CHANNELS 3 Zrotation Xrotation Yrotation
                                    JOINT LeftFinger22
                                    {
                                        OFFSET   2.788150   0.000016   0.000000
                                        CHANNELS 3 Zrotation Xrotation Yrotation
                                        End Site
                                        {
                                            OFFSET   2.727660   0.000000   0.000000
                                        }
                                    }
                                }
                            }
                            JOINT LeftFinger3
                            {
                                OFFSET   7.899780   0.000015  -1.078090
                                CHANNELS 3 Zrotation Xrotation Yrotation
                                JOINT LeftFinger31
                                {
                                    OFFSET   4.646930   0.000000   0.000000
                                    CHANNELS 3 Zrotation Xrotation Yrotation
                                    JOINT LeftFinger32
                                    {
                                        OFFSET   2.323470   0.000000   0.000000
                                        CHANNELS 3 Zrotation Xrotation Yrotation
                                        End Site
                                        {
                                            OFFSET   2.273050   0.000000   0.000000
                                        }
                                    }
                                }
                            }
                            JOINT LeftFinger4
                            {
                                OFFSET   7.435090   0.000000  -3.252850
                                CHANNELS 3 Zrotation Xrotation Yrotation
                                JOINT LeftFinger41
                                {
                                    OFFSET   3.717550   0.000000   0.000000
                                    CHANNELS 3 Zrotation Xrotation Yrotation
                                    JOINT LeftFinger42
                                    {
                                        OFFSET   1.858770   0.000000   0.000000
                                        CHANNELS 3 Zrotation Xrotation Yrotation
                                        End Site
                                        {
                                            OFFSET   1.818440   0.000000   0.000000
                                        }
                                    }
                                }
                            }
                        }
                    }
                }
            }
            JOINT RightCollar
            {
                OFFSET  -3.911910  19.017000  -0.467062
                CHANNELS 3 Zrotation Xrotation Yrotation
                JOINT RightShoulder
                {
                    OFFSET -10.383700   0.000014   0.000000
                    CHANNELS 3 Zrotation Xrotation Yrotation
                    JOINT RightElbow
                    {
                        OFFSET -26.662100   0.001225   0.001091
                        CHANNELS 3 Zrotation Xrotation Yrotation
                        JOINT RightWrist
                        {
                            OFFSET -28.869000  -0.000020  -0.000085
                            CHANNELS 3 Zrotation Xrotation Yrotation
                            JOINT RightFinger0
                            {
                                OFFSET  -2.044650  -2.323490   3.252850
                                CHANNELS 3 Zrotation Xrotation Yrotation
                                JOINT RightFinger01
                                {
                                    OFFSET  -3.088130   0.000000   0.000000
                                    CHANNELS 3 Zrotation Xrotation Yrotation
                                    JOINT RightFinger02
                                    {
                                        OFFSET  -2.639460   0.000000   0.000000
                                        CHANNELS 3 Zrotation Xrotation Yrotation
                                        End Site
                                        {
                                            OFFSET  -2.582190   0.000000   0.000000
                                        }
                                    }
                                }
                            }
                            JOINT RightFinger1
                            {
                                OFFSET  -8.364480   0.000000   3.252850
                                CHANNELS 3 Zrotation Xrotation Yrotation
                                JOINT RightFinger11
                                {
                                    OFFSET  -4.646930   0.000000   0.000000
                                    CHANNELS 3 Zrotation Xrotation Yrotation
                                    JOINT RightFinger12
                                    {
                                        OFFSET  -2.323470   0.000000   0.000000
                                        CHANNELS 3 Zrotation Xrotation Yrotation
                                        End Site
                                        {
                                            OFFSET  -2.273050   0.000000   0.000000
                                        }
                                    }
                                }
                            }
                            JOINT RightFinger2
                            {
                                OFFSET  -8.364480   0.000000   1.078090
                                CHANNELS 3 Zrotation Xrotation Yrotation
                                JOINT RightFinger21
                                {
                                    OFFSET  -5.111620   0.000000   0.000000
                                    CHANNELS 3 Zrotation Xrotation Yrotation
                                    JOINT RightFinger22
                                    {
                                        OFFSET  -2.788160   0.000000   0.000000
                                        CHANNELS 3 Zrotation Xrotation Yrotation
                                        End Site
                                        {
                                            OFFSET  -2.727660   0.000000   0.000000
                                        }
                                    }
                                }
                            }
                            JOINT RightFinger3
                            {
                                OFFSET  -7.899780   0.000000  -1.078090
                                CHANNELS 3 Zrotation Xrotation Yrotation
                                JOINT RightFinger31
                                {
                                    OFFSET  -4.646930   0.000000   0.000000
                                    CHANNELS 3 Zrotation Xrotation Yrotation
                                    JOINT RightFinger32
                                    {
                                        OFFSET  -2.323470   0.000000   0.000000
                                        CHANNELS 3 Zrotation Xrotation Yrotation
                                        End Site
                                        {
                                            OFFSET  -2.273050   0.000000   0.000000
                                        }
                                    }
                                }
                            }
                            JOINT RightFinger4
                            {
                                OFFSET  -7.435090   0.000000  -3.252850
                                CHANNELS 3 Zrotation Xrotation Yrotation
                                JOINT RightFinger41
                                {
                                    OFFSET  -3.717550   0.000000   0.000000
                                    CHANNELS 3 Zrotation Xrotation Yrotation
                                    JOINT RightFinger42
                                    {
                                        OFFSET  -1.858760   0.000000   0.000000
                                        CHANNELS 3 Zrotation Xrotation Yrotation
                                        End Site
                                        {
                                            OFFSET  -1.818440   0.000000   0.000000
                                        }
                                    }
                                }
                            }
                        }
                    }
                }
            }
        }
    }
    JOINT LeftHip
    {
        OFFSET   9.783030   0.000000   0.000000
        CHANNELS 3 Zrotation Xrotation Yrotation
        JOINT LeftKnee
        {
            OFFSET   0.000063 -41.789100   0.000608
            CHANNELS 3 Zrotation Xrotation Yrotation
            JOINT LeftAnkle
            {
                OFFSET   0.000048 -41.133200  -0.000184
                CHANNELS 3 Zrotation Xrotation Yrotation
                JOINT LeftToe
                {
                    OFFSET   0.000000  -6.358960  14.674500
                    CHANNELS 3 Zrotation Xrotation Yrotation
                    End Site
                    {
                        OFFSET   0.000000   0.000000   3.913200
                    }
                }
            }
        }
    }
    JOINT RightHip
    {
        OFFSET  -9.783030   0.000000   0.000000
        CHANNELS 3 Zrotation Xrotation Yrotation
        JOINT RightKnee
        {
            OFFSET   0.000071 -41.789100   0.001239
            CHANNELS 3 Zrotation Xrotation Yrotation
            JOINT RightAnkle
            {
                OFFSET   0.000037 -41.133200  -0.000166
                CHANNELS 3 Zrotation Xrotation Yrotation
                JOINT RightToe
                {
                    OFFSET   0.000000  -6.358960  14.674500
                    CHANNELS 3 Zrotation Xrotation Yrotation
                    End Site
                    {
                        OFFSET   0.000000   0.000000   3.913200
                    }
                }
            }
        }
    }
}
MOTION
Frames: 6
Frame Time:   0.016667
 -0.759055  89.504800   0.806586  -0.715665  -5.242740  -2.004010   0.861489   3.756170  -0.909255   1.788520   7.497710  -1.881210  -2.074270  -1.530920  -0.059982  -3.414610  -3.091960   6.217850  -6.516650   1.025670  11.538600 -77.726000   8.365630   0.086698  -1.022910   0.566659 -11.080600  15.933300  -3.409370  -1.314190  38.036400  33.079900 -48.282600 -35.487700   0.005822   0.004243 -13.172600   0.006881  -0.003679 -38.121300  -0.089911   0.114587 -31.190200  -0.002611  -0.004434 -21.833200   0.002213  -0.014983 -31.964300  -3.706070   5.899550 -48.233600  -0.000372  -0.012072 -32.123500   0.003594  -0.000387 -28.423900  -4.819900   8.824510 -42.318100  -0.001388  -0.003533 -28.183800   0.003211  -0.002622 -37.308400  -7.593580   9.838000 -56.944300   0.006430  -0.001289 -37.924900   0.000898  -0.011599   7.329990   3.991340   6.989230  71.472700  -3.012990  -0.242883   4.797710  -8.198880  10.641800 -23.638400   1.046780   2.659960 -38.057700  33.193200  66.385100  32.424300   0.001210  -0.005027  11.212200   0.000479  -0.003579  26.877800  -0.274159  -0.562578  21.992000  -0.003051   0.000339  15.394500   0.002461   0.001711  27.442900  -0.599895  -1.153610  28.956600  -0.008039   0.009606  19.285100  -0.003672   0.006452  27.390100  -2.176430  -4.192030  29.056500  -0.003871   0.008796  19.351700   0.000000   0.007187  31.518800  -2.472860  -4.024490  47.408600  -0.007546   0.008019  31.574100  -0.015131   0.002013   1.487300   5.234240  -2.200450   1.852450   3.863680  12.523600  -3.633310  -4.032610   1.309720  -0.000000   0.000000   0.000000  -0.034193   6.279860  -4.475250   0.364789   2.589810 -14.597100   0.838867  -3.277770  -2.174540   0.000000   0.000000   0.000000
 -0.753811  89.504800   0.806586  -0.714849  -5.242770  -1.995070   0.863419   3.755970  -0.911112   1.792510   7.497220  -1.885050  -2.069450  -1.523750  -0.059969  -3.406620  -3.077480   6.208460  -6.521450   1.025620  11.553200 -77.719400   8.418010   0.077041  -1.029180   0.551533 -11.081900  15.932700  -3.413480  -1.321990  38.037000  33.071300 -48.299900 -35.477900   0.005823   0.004244 -13.163000   0.006878  -0.003681 -38.145800  -0.064770   0.082482 -31.210300  -0.002603  -0.004439 -21.847200   0.002212  -0.014991 -31.975600  -3.706060   5.899520 -48.250700  -0.000374  -0.012074 -32.134900   0.003592  -0.000390 -28.428800  -4.804010   8.794940 -42.349900  -0.001387  -0.003532 -28.203100   0.003210  -0.002620 -37.330600  -7.575050   9.806170 -56.974500   0.006426  -0.001279 -37.945100   0.000898  -0.011600   7.329230   3.990500   7.001320  71.461500  -3.014100  -0.243358   4.789430  -8.182060  10.632700 -23.675000   1.019000   2.660030 -38.031600  33.182300  66.394300  32.435500   0.001207  -0.005021  11.217800   0.000480  -0.003587  26.915600  -0.274295  -0.558748  22.022900  -0.003051   0.000312  15.416100   0.002463   0.001711  27.457200  -0.599895  -1.153610  29.025200  -0.008049   0.009604  19.330800  -0.003676   0.006446  27.408500  -2.183050  -4.201450  29.147600  -0.003875   0.008791  19.412300   0.000000   0.007183  31.552900  -2.481260  -4.032730  47.460500  -0.007551   0.008019  31.608600  -0.015133   0.002009   1.486420   5.235210  -2.190910   1.850870   3.856220  12.512000  -3.633830  -4.026580   1.304850   0.000000   0.000000  -0.000000  -0.040977   6.279840  -4.475390   0.365959   2.593640 -14.601100   0.843651  -3.277650  -2.174350   0.000000   0.000000   0.000000
 -0.745906  89.504700   0.806584  -0.713296  -5.242820  -1.978080   0.866459   3.755760  -0.914388   1.798810   7.496720  -1.891820  -2.059820  -1.511200  -0.059935  -3.390690  -3.052190   6.191980  -6.531300   1.025560  11.567900 -77.708500   8.470390   0.067382  -1.039430   0.536364 -11.089800  15.931800  -3.421050  -1.336020  38.037700  33.062700 -48.317200 -35.468200   0.005825   0.004245 -13.153400   0.006866  -0.003689 -38.170300  -0.039628   0.050378 -31.230300  -0.002585  -0.004453 -21.861200   0.002209  -0.015012 -31.986900  -3.706040   5.899460 -48.267700  -0.000381  -0.012079 -32.146300   0.003586  -0.000399 -28.433700  -4.788110   8.765370 -42.385000  -0.001383  -0.003529 -28.228400   0.003208  -0.002616 -37.356800  -7.556510   9.774340 -57.005700   0.006416  -0.001256 -37.965800   0.000896  -0.011602   7.327970   3.985120   7.028560  71.443300  -3.021840  -0.246680   4.777000  -8.165360  10.619000 -23.722000   0.991212   2.660090 -38.002700  33.157600  66.409000  32.455600   0.001197  -0.005009  11.227800   0.000483  -0.003596  26.953400  -0.274432  -0.551508  22.053800  -0.003050   0.000256  15.437700   0.002470   0.001712  27.471500  -0.599894  -1.153610  29.093900  -0.008075   0.009596  19.376500  -0.003688   0.006431  27.434300  -2.192620  -4.215180  29.275900  -0.003886   0.008780  19.497800   0.000000   0.007170  31.605400  -2.493680  -4.044570  47.540300  -0.007569   0.008019  31.661800  -0.015138   0.001995   1.485620   5.239410  -2.181390   1.847690   3.842930  12.493500  -3.634700  -4.016130   1.296490  -0.000000   0.000000   0.000000  -0.051198   6.279680  -4.475560   0.368475   2.601840 -14.611300   0.850136  -3.277530  -2.174150  -0.000000   0.000000   0.000000
 -0.741417  89.504600   0.806533  -0.709883  -5.245300  -1.959950   0.868386   3.756830  -0.917270   1.802890   7.498800  -1.897750  -2.048140  -1.499340  -0.059879  -3.371340  -3.028470   6.178020  -6.539230   1.022360  11.567100 -77.698900   8.465820   0.069437  -1.047180   0.561033 -11.109500  15.926600  -3.429300  -1.353110  38.034900  33.065800 -48.309800 -35.469900   0.005831   0.004246 -13.155700   0.006839  -0.003705 -38.148300  -0.046023   0.058588 -31.212200  -0.002559  -0.004475 -21.848600   0.002204  -0.015046 -31.986600  -3.706010   5.899410 -48.267400  -0.000393  -0.012087 -32.146100   0.003576  -0.000413 -28.431300  -4.795370   8.778830 -42.388100  -0.001376  -0.003522 -28.235500   0.003204  -0.002610 -37.356400  -7.567040   9.788460 -57.006300   0.006405  -0.001222 -37.966200   0.000891  -0.011607   7.337730   3.958040   7.064990  71.427300  -3.050400  -0.271394   4.773020  -8.176240  10.609500 -23.734400   1.001070   2.659850 -37.962200  33.102300  66.385300  32.474100   0.001178  -0.004998  11.237000   0.000496  -0.003592  26.936000  -0.273079  -0.541701  22.039600  -0.003051   0.000178  15.427700   0.002480   0.001713  27.469400  -0.601369  -1.156560  29.083800  -0.008117   0.009581  19.369800  -0.003708   0.006406  27.442800  -2.195180  -4.218740  29.318600  -0.003904   0.008762  19.526200   0.000000   0.007149  31.634100  -2.497880  -4.047470  47.583700  -0.007598   0.008018  31.690700  -0.015146   0.001973   1.485900   5.248780  -2.181550   1.843810   3.829110  12.480300  -3.634260  -4.006580   1.289840  -0.000000   0.000000  -0.000000  -0.056876   6.278440  -4.475620   0.371770   2.612630 -14.628400   0.851525  -3.278810  -2.174200  -0.000000   0.000000  -0.000000
 -0.737760  89.504500   0.806440  -0.705123  -5.252700  -1.939530   0.870441   3.760880  -0.920606   1.807320   7.506790  -1.904650  -2.035860  -1.487850  -0.059813  -3.351020  -3.005470   6.161060  -6.554530   1.011460  11.561900 -77.689300   8.461250   0.071492  -1.050820   0.585691 -11.133100  15.919300  -3.436980  -1.363980  38.038200  33.065900 -48.300300 -35.472400   0.005837   0.004246 -13.158200   0.006803  -0.003723 -38.102900  -0.056688   0.072303 -31.175100  -0.002526  -0.004504 -21.822600   0.002197  -0.015090 -31.985200  -3.705970   5.899370 -48.265100  -0.000408  -0.012098 -32.144600   0.003562  -0.000432 -28.427800  -4.806380   8.799230 -42.389200  -0.001368  -0.003514 -28.236500   0.003198  -0.002602 -37.352900  -7.583200   9.809370 -57.007000   0.006389  -0.001178 -37.966600   0.000884  -0.011614   7.358770   3.908520   7.110010  71.413000  -3.077220  -0.312592   4.770510  -8.231490  10.605700 -23.736800   1.016850   2.658090 -37.886000  33.006200  66.315200  32.496300   0.001156  -0.004982  11.248100   0.000516  -0.003589  26.911600  -0.271726  -0.535303  22.019700  -0.003053   0.000098  15.413800   0.002495   0.001717  27.467100  -0.609289  -1.171890  29.073700  -0.008173   0.009562  19.363100  -0.003734   0.006376  27.449700  -2.199950  -4.226450  29.354500  -0.003927   0.008740  19.550100   0.000000   0.007123  31.666100  -2.505000  -4.053350  47.632300  -0.007636   0.008016  31.723100  -0.015158   0.001944   1.486210   5.260180  -2.181990   1.839730   3.817100  12.469400  -3.632830  -3.997130   1.281840  -0.000000   0.000000   0.000000  -0.061798   6.277320  -4.475630   0.375574   2.624790 -14.646600   0.852308  -3.282250  -2.174570  -0.000000   0.000000   0.000000
 -0.734502  89.504400   0.806350  -0.700577  -5.263510  -1.917300   0.872982   3.767740  -0.924838   1.812830   7.520400  -1.913440  -2.024940  -1.478340  -0.059748  -3.333070  -2.986310   6.139400  -6.586570   0.990191  11.534400 -77.679400   8.461420   0.071172  -1.049580   0.565656 -11.150000  15.917500  -3.442020  -1.352090  38.024200  33.031300 -48.275600 -35.473100   0.005840   0.004225 -13.158200   0.006766  -0.003740 -38.042100  -0.060961   0.077820 -31.125400  -0.002488  -0.004539 -21.787800   0.002188  -0.015143 -31.980600  -3.705920   5.899400 -48.258200  -0.000427  -0.012110 -32.139900   0.003546  -0.000456 -28.426800  -4.809710   8.805400 -42.392100  -0.001360  -0.003507 -28.236200   0.003192  -0.002589 -37.354200  -7.589550   9.817890 -57.010100   0.006367  -0.001124 -37.968700   0.000877  -0.011622   7.389610   3.841710   7.176280  71.403000  -3.082940  -0.366625   4.768090  -8.354960  10.627500 -23.729200   1.030700   2.633170 -37.807200  32.886600  66.222700  32.517600   0.001140  -0.004955  11.258800   0.000535  -0.003592  26.901400  -0.273442  -0.538757  22.011300  -0.003054   0.000033  15.407900   0.002515   0.001730  27.468900  -0.623586  -1.199440  29.083800  -0.008241   0.009541  19.369800  -0.003766   0.006342  27.463400  -2.210810  -4.244760  29.425700  -0.003953   0.008715  19.597500   0.000000   0.007094  31.716500  -2.519790  -4.068830  47.708900  -0.007683   0.008014  31.774100  -0.015172   0.001914   1.486280   5.267190  -2.182750   1.836600   3.813310  12.463000  -3.631240  -3.988670   1.270110  -0.000000   0.000000   0.000000  -0.066362   6.282150  -4.475050   0.379374   2.636340 -14.657700   0.854903  -3.287710  -2.182340   0.000000   0.000000  -0.000000
